<svg xmlns="http://www.w3.org/2000/svg" xmlns:xlink="http://www.w3.org/1999/xlink" width="360" height="760" viewBox="0 0 360 760"><defs><style>.a{fill:#fcfcfc;}.b{clip-path:url(#a);}.c{opacity:0.02;}.d,.e{fill:#150d1d;}.d{fill-rule:evenodd;}</style><clipPath id="a"><rect class="a" width="360" height="760"/></clipPath></defs><rect class="a" width="360" height="760"/><g class="b"><g class="c" transform="translate(-7848.252 -5075.236)"><g transform="translate(7971 4767.743)"><path class="d" d="M380.194-75.9a7.857,7.857,0,0,0-7.857-7.857H15.874A7.857,7.857,0,0,0,8.017-75.9V454.334a7.858,7.858,0,0,0,7.857,7.858H372.337a7.858,7.858,0,0,0,7.857-7.858Zm-15.715,7.858V446.476H23.732V-68.046Z" transform="translate(43.147 118.284)"/><path class="d" d="M104.136-56.051A80.947,80.947,0,1,0,185.082,24.9a80.985,80.985,0,0,0-80.947-80.947Zm0,15.715A65.232,65.232,0,1,1,38.9,24.9,65.263,65.263,0,0,1,104.136-40.336Z" transform="translate(133.117 282.604)"/><path class="d" d="M41.341,11.973l35.81-62.024,35.905,62.189,13.61-7.857L77.151-81.482l-49.42,85.6Z" transform="translate(160.054 131.8)"/><path class="d" d="M33.736-79.38V89.131H49.451V-79.38Z" transform="translate(195.659 144.264)"/><path class="d" d="M33.686-33.091V150.647H50.1V-33.091Z" transform="translate(195.362 418.756)"/><path class="d" d="M157.789-17.681H25.311V-1.966H157.789Z" transform="translate(145.703 510.14)"/><path class="d" d="M94.442-29.046l6.947,53.654L51.309,3.74,45.264,18.246,120.47,49.585,110.027-31.064Z" transform="translate(264.024 430.781)"/><path class="d" d="M135.947,69.226,54.675-37.16l-12.488,9.54L123.459,78.766Z" transform="translate(245.775 394.631)"/><path class="d" d="M24.065-31.064,13.623,49.585l75.2-31.339L82.782,3.74,32.7,24.609l6.947-53.654Z" transform="translate(76.389 430.781)"/><path class="d" d="M26.511,78.766,107.783-27.619,95.295-37.16,14.022,69.226Z" transform="translate(78.761 394.631)"/><path class="d" d="M95.188-36.422,41.972,18.517,53.26,29.451l53.216-54.939Z" transform="translate(244.5 399.003)"/><path class="d" d="M18.459-25.488,71.675,29.451,82.963,18.517,29.747-36.422Z" transform="translate(105.071 399.003)"/><path class="d" d="M51.838,38.251,146.348-56.26,135.236-67.372,40.725,27.138Z" transform="translate(237.107 215.472)"/><path class="d" d="M44.319-56.049l68.144,68.144L123.575.983,55.431-67.161Z" transform="translate(258.417 216.725)"/><path class="d" d="M119.4,27.138,24.884-67.372,13.772-56.26l94.511,94.51Z" transform="translate(77.277 215.472)"/><path class="d" d="M82.127-67.161,13.984.982,25.1,12.095,93.239-56.049Z" transform="translate(78.53 216.725)"/><path class="d" d="M63.987-25.369s16.792-18.051,41.11-4.5c13.757,7.664,25.218,9.379,34.442,8.293,14.653-1.725,24.136-10.59,28.968-17.048l-12.583-9.415A26.779,26.779,0,0,1,137.7-37.188c-6.71.79-14.951-.839-24.957-6.414-35.8-19.946-60.4,7.678-60.4,7.678Z" transform="translate(305.998 313.533)"/><path class="d" d="M63.987-21.048s16.792-18.05,41.11-4.5c13.757,7.664,25.218,9.379,34.442,8.293,14.653-1.725,24.136-10.59,28.968-17.048l-12.583-9.415A26.779,26.779,0,0,1,137.7-32.866c-6.71.79-14.951-.839-24.957-6.414-35.8-19.946-60.4,7.678-60.4,7.678Z" transform="translate(305.998 339.158)"/><path class="d" d="M63.987-16.727s16.792-18.05,41.11-4.5c13.757,7.664,25.218,9.379,34.442,8.293,14.653-1.725,24.136-10.59,28.968-17.048L155.924-39.4A26.779,26.779,0,0,1,137.7-28.545c-6.71.79-14.951-.839-24.957-6.414-35.8-19.946-60.4,7.678-60.4,7.678Z" transform="translate(305.998 364.783)"/><path class="d" d="M12.278-25.369s16.792-18.051,41.11-4.5c13.757,7.664,25.219,9.379,34.443,8.293C102.483-23.3,111.966-32.17,116.8-38.628l-12.583-9.415A26.779,26.779,0,0,1,85.993-37.188c-6.71.79-14.951-.839-24.957-6.414-35.8-19.946-60.4,7.678-60.4,7.678Z" transform="translate(-0.634 313.533)"/><path class="d" d="M12.278-21.048s16.792-18.05,41.11-4.5c13.757,7.664,25.219,9.379,34.443,8.293,14.652-1.725,24.136-10.59,28.967-17.048l-12.583-9.415A26.779,26.779,0,0,1,85.993-32.866c-6.71.79-14.951-.839-24.957-6.414C25.233-59.226.634-31.6.634-31.6Z" transform="translate(-0.634 339.158)"/><path class="d" d="M12.278-16.727s16.792-18.05,41.11-4.5c13.757,7.664,25.219,9.379,34.443,8.293,14.652-1.725,24.136-10.59,28.967-17.048L104.215-39.4A26.779,26.779,0,0,1,85.993-28.545c-6.71.79-14.951-.839-24.957-6.414C25.233-54.9.634-27.28.634-27.28Z" transform="translate(-0.634 364.783)"/><path class="e" d="M213.407-88.743A209.407,209.407,0,0,0,3.742,120.922V126.6c1.848-.1,3.709-.162,5.583-.162H21.71v-5.512a191.079,191.079,0,0,1,191.7-191.7h12.1a191.079,191.079,0,0,1,191.7,191.7v5.513h12.385c1.871,0,3.728.062,5.573.162v-5.675A209.4,209.4,0,0,0,225.507-88.743ZM4.015,327.287A209.378,209.378,0,0,0,213.407,526.243h12.1A209.377,209.377,0,0,0,434.9,327.287c-1.758.091-3.528.142-5.309.142h-12.7A191.023,191.023,0,0,1,225.507,508.285h-12.1A191.023,191.023,0,0,1,22.024,327.429H9.325C7.543,327.429,5.773,327.377,4.015,327.287Z" transform="translate(17.795 88.743)"/></g></g></g></svg>